#!OML:ASF Y:\EmotionMaleHayes\Project 1\Capture day 1\Session 1\Male1.ASF
:FULLY-SPECIFIED
:DEGREES
289
root 41.4097 16.1107 -1.54568 -41.7469 82.2649 -42.3685
lowerback 15.8302 4.40654 3.69923
upperback 2.65597 6.76669 2.68223
thorax -5.90597 3.32091 -0.626613
lowerneck -29.7017 0.731497 3.02757
upperneck 11.7632 0.744431 -4.39767
head 8.41488 0.024816 -1.88975
rclavicle -7.49418e-014 -7.15625e-015
rhumerus -28.9731 16.8089 -89.0368
rradius 100.869
rwrist -14.4835
rhand -29.6069 -20.3377
rfingers 7.12502
rthumb -2.93779 -50.2972
lclavicle -7.49418e-014 -7.15625e-015
lhumerus -78.3389 -12.1797 99.8506
lradius 93.8262
lwrist 28.4099
lhand -29.7171 -20.6956
lfingers 7.12502
lthumb -3.04421 9.26246
rfemur 3.45779 4.9646 32.6786
rtibia 33.2439
rfoot -28.3929 -3.92557
rtoes -1.03411
lfemur -30.1782 12.2661 -11.6517
ltibia 81.6683
lfoot 163.823 -39.053
ltoes -7.12551
290
root 41.8255 16.2252 -1.57609 -40.6152 82.1929 -41.3064
lowerback 15.5321 4.66597 3.98074
upperback 2.45072 7.12032 2.44739
thorax -5.88693 3.47962 -1.0778
lowerneck -29.6169 0.374412 2.84485
upperneck 12.1438 0.297438 -4.17644
head 8.51487 -0.173222 -1.85508
rclavicle -3.60794e-014 -8.34896e-015
rhumerus -28.4796 16.4163 -89.4154
rradius 101.956
rwrist -14.4072
rhand -29.9441 -19.9216
rfingers 7.12502
rthumb -3.26346 -49.8763
lclavicle -3.60794e-014 -8.34896e-015
lhumerus -80.5268 -12.7339 99.7712
lradius 94.3936
lwrist 28.5338
lhand -29.6356 -20.4937
lfingers 7.12502
lthumb -2.96553 9.46539
rfemur 6.10928 5.27507 32.346
rtibia 30.9588
rfoot -26.676 -3.02573
rtoes 0.902491
lfemur -31.6319 11.9271 -11.9282
ltibia 85.5552
lfoot 149.929 -62.2188
ltoes -6.70758
291
root 42.2297 16.3601 -1.59235 -36.8168 82.2482 -37.4418
lowerback 15.6776 5.08148 3.70408
upperback 2.18673 7.60615 2.13736
thorax -6.22136 3.69998 -1.37341
lowerneck -30.0123 -0.0209784 2.62621
upperneck 13.0595 -0.181052 -3.99562
head 8.87748 -0.398655 -1.84513
rclavicle 4.55217e-014 -5.1684e-015
rhumerus -28.2288 16.0841 -89.7372
rradius 103.08
rwrist -14.6069
rhand -30.4107 -19.9932
rfingers 7.12502
rthumb -3.71409 -49.9406
lclavicle 4.55217e-014 -5.1684e-015
lhumerus -82.7027 -13.4104 99.7577
lradius 95.0183
lwrist 28.7589
lhand -29.6231 -20.2309
lfingers 7.12502
lthumb -2.95343 9.72838
rfemur 8.4878 5.73807 31.6444
rtibia 29.1021
rfoot -24.7481 -2.62907
rtoes 1.81806
lfemur -32.5639 11.6888 -12.493
ltibia 88.3954
lfoot 86.1608 -77.6787
ltoes -6.02682
292
root 42.6332 16.5034 -1.60665 -30.2024 82.3595 -30.4083
lowerback 16.1022 5.59064 3.02671
upperback 2.09007 8.14781 1.75018
thorax -6.56955 3.95883 -1.56844
lowerneck -29.9383 -0.52443 1.94769
upperneck 13.3641 -0.733538 -3.2826
head 8.95658 -0.610398 -1.5754
rclavicle -2.0276e-014 -5.56597e-015
rhumerus -27.9458 15.8414 -89.8784
rradius 104.161
rwrist -15.1924
rhand -31.0181 -20.599
rfingers 7.12502
rthumb -4.30065 -50.5353
lclavicle -2.0276e-014 -5.56597e-015
lhumerus -84.6397 -14.1043 99.7565
lradius 95.6125
lwrist 29.049
lhand -29.6556 -20.3384
lfingers 7.12502
lthumb -2.98481 9.62045
rfemur 11.0444 6.17095 30.4112
rtibia 27.377
rfoot -22.2203 -2.49438
rtoes 0.581574
lfemur -32.7311 11.4922 -13.4045
ltibia 88.7346
lfoot 19.1851 -62.9315
ltoes -5.02285
293
root 43.0672 16.6379 -1.63855 -25.5852 82.682 -25.8058
lowerback 15.5313 5.86472 2.7463
upperback 2.03785 8.40346 1.35073
thorax -6.2813 4.09225 -1.82151
lowerneck -29.8422 -0.829248 1.68808
upperneck 13.6587 -1.08266 -3.07602
head 9.03767 -0.764847 -1.51888
rclavicle -2.33572e-014 1.98785e-015
rhumerus -27.5586 15.8695 -89.9895
rradius 105.115
rwrist -16.1886
rhand -31.5957 -21.2352
rfingers 7.12502
rthumb -4.85836 -51.1595
lclavicle -2.33572e-014 1.98785e-015
lhumerus -86.398 -14.6176 99.6264
lradius 96.2533
lwrist 29.4505
lhand -29.6067 -20.6426
lfingers 7.12502
lthumb -2.93763 9.31695
rfemur 13.1327 5.85832 28.9416
rtibia 25.6329
rfoot -19.3084 -1.97971
rtoes -0.458072
lfemur -33.0964 10.868 -14.3667
ltibia 86.0981
lfoot 3.81274 -39.6781
ltoes -4.26717
294
root 43.5017 16.7707 -1.67744 -23.9367 82.7758 -24.2495
lowerback 15.1358 6.05488 2.97684
upperback 1.79592 8.65264 1.01574
thorax -6.22591 4.20094 -2.3104
lowerneck -30.0767 -1.1956 1.5123
upperneck 14.3997 -1.58889 -2.70347
head 9.32731 -0.969465 -1.452
rclavicle 8.33902e-014 -2.22639e-014
rhumerus -27.5851 16.0014 -90.2909
rradius 106.102
rwrist -17.3169
rhand -31.9001 -21.6097
rfingers 7.12502
rthumb -5.15224 -51.5271
lclavicle 8.33902e-014 -2.22639e-014
lhumerus -88.3582 -15.0017 99.4355
lradius 97.009
lwrist 29.9478
lhand -29.5619 -20.8477
lfingers 7.12502
lthumb -2.89436 9.11239
rfemur 14.8989 5.3716 27.8399
rtibia 24.2032
rfoot -16.1548 -1.23389
rtoes -0.854934
lfemur -33.3204 10.4404 -14.8434
ltibia 81.2804
lfoot -3.83791 -15.5421
ltoes -5.2371
295
root 43.9094 16.9208 -1.70584 -25.8079 82.6859 -26.2852
lowerback 14.936 6.18957 3.44934
upperback 1.52322 8.89488 0.909393
thorax -6.30702 4.29769 -2.71415
lowerneck -29.8153 -1.2408 1.49621
upperneck 14.6733 -1.67553 -2.56813
head 9.38291 -0.995057 -1.41628
rclavicle 5.32246e-014 1.98785e-015
rhumerus -27.6249 16.3359 -90.423
rradius 106.984
rwrist -18.518
rhand -32.1309 -21.6471
rfingers 7.12502
rthumb -5.37508 -51.5589
lclavicle 5.32246e-014 1.98785e-015
lhumerus -90.0524 -15.2141 99.2698
lradius 97.7419
lwrist 30.447
lhand -29.5884 -20.9413
lfingers 7.12502
lthumb -2.91996 9.0185
rfemur 16.1456 5.15259 27.5072
rtibia 23.2472
rfoot -12.8186 -0.907282
rtoes 1.06043
lfemur -33.6852 10.2165 -14.6197
ltibia 76.4351
lfoot -9.66387 8.56561
ltoes -5.48869
296
root 44.3359 17.0607 -1.74173 -28.7193 82.6299 -29.3437
lowerback 14.6681 6.26422 4.17919
upperback 1.19952 9.09602 0.783609
thorax -6.36047 4.3663 -3.26108
lowerneck -29.7746 -1.42839 1.41905
upperneck 15.2703 -1.93419 -2.42117
head 9.58617 -1.10293 -1.40157
rclavicle -2.07233e-014 3.97569e-016
rhumerus -27.8705 16.771 -90.5527
rradius 107.767
rwrist -19.7241
rhand -32.4839 -21.6522
rfingers 7.12502
rthumb -5.71592 -51.5552
lclavicle -2.07233e-014 3.97569e-016
lhumerus -91.7199 -15.4943 99.1116
lradius 98.3232
lwrist 31.0223
lhand -29.6573 -21.1912
lfingers 7.12502
lthumb -2.98646 8.76762
rfemur 17.4464 4.53127 27.0401
rtibia 22.2554
rfoot -9.11059 -0.513193
rtoes 5.46151
lfemur -33.6576 9.77657 -14.2892
ltibia 71.8375
lfoot -9.68888 9.96512
ltoes -4.33327
297
root 44.7782 17.1882 -1.78325 -30.2686 82.5216 -31.0515
lowerback 14.0577 6.34513 4.73751
upperback 1.00889 9.25396 0.663237
thorax -6.10825 4.4346 -3.64393
lowerneck -29.8073 -1.64002 1.2543
upperneck 15.7683 -2.21808 -2.15515
head 9.76917 -1.21117 -1.33427
rclavicle -8.4732e-014 4.17448e-015
rhumerus -28.1157 17.419 -90.6653
rradius 108.575
rwrist -20.7787
rhand -32.7633 -21.9388
rfingers 7.12502
rthumb -5.98568 -51.8342
lclavicle -8.4732e-014 4.17448e-015
lhumerus -93.1272 -15.6071 98.9734
lradius 98.8475
lwrist 31.836
lhand -29.8972 -21.7225
lfingers 7.12502
lthumb -3.21822 8.233
rfemur 18.7474 3.84999 26.2557
rtibia 21.2182
rfoot -5.24815 -0.0861511
rtoes 11.5804
lfemur -33.2444 9.32605 -14.0911
ltibia 66.8177
lfoot -9.4146 10.6055
ltoes -3.40109
298
root 45.2224 17.3083 -1.82297 -28.7963 82.6558 -29.7907
lowerback 13.2664 6.44713 4.79756
upperback 0.873835 9.33743 0.416505
thorax -5.75627 4.48445 -3.84707
lowerneck -29.7583 -1.91521 0.946589
upperneck 16.0969 -2.58491 -1.6577
head 9.88372 -1.33597 -1.17129
rclavicle -8.46574e-014 -1.78906e-015
rhumerus -28.4233 17.9901 -90.8285
rradius 109.449
rwrist -21.699
rhand -33.0547 -22.1833
rfingers 7.12502
rthumb -6.26704 -52.0706
lclavicle -8.46574e-014 -1.78906e-015
lhumerus -94.3533 -15.6972 98.7985
lradius 99.4155
lwrist 32.7689
lhand -30.1501 -22.0672
lfingers 7.12502
lthumb -3.46239 7.88441
rfemur 19.9071 3.20812 24.9454
rtibia 20.3206
rfoot -1.91794 0.152836
rtoes 16.147
lfemur -32.6259 8.77429 -14.4278
ltibia 61.4845
lfoot -8.43513 10.9249
ltoes -2.98757
299
root 45.6586 17.4202 -1.8563 -27.1218 82.8236 -28.2013
lowerback 12.772 6.57899 4.81604
upperback 0.725114 9.47354 0.177503
thorax -5.58436 4.5529 -4.06683
lowerneck -30.0507 -2.118 0.461008
upperneck 16.8351 -2.80459 -1.08129
head 10.2134 -1.39143 -0.937354
rclavicle 1.18302e-013 -4.77083e-015
rhumerus -28.8139 18.4225 -90.8772
rradius 110.294
rwrist -22.4879
rhand -33.3614 -22.2298
rfingers 7.12502
rthumb -6.5631 -52.1081
lclavicle 1.18302e-013 -4.77083e-015
lhumerus -95.423 -15.9449 98.6548
lradius 99.8572
lwrist 33.4503
lhand -30.147 -21.9865
lfingers 7.12502
lthumb -3.45938 7.96514
rfemur 20.9767 2.68158 23.7839
rtibia 19.964
rfoot 0.436426 0.136759
rtoes 16.5548
lfemur -31.6638 8.20594 -14.7221
ltibia 55.8729
lfoot -6.79834 11.0535
ltoes -2.08465
300
root 46.0876 17.5235 -1.89017 -25.8509 83.0108 -27.1507
lowerback 12.2072 6.62194 4.8105
upperback 0.52326 9.48752 -0.0537493
thorax -5.44544 4.55966 -4.24167
lowerneck -30.0641 -2.33396 0.430062
upperneck 17.2347 -3.09509 -1.06535
head 10.3598 -1.52289 -0.981502
rclavicle 3.13831e-014 -3.37934e-015
rhumerus -29.2182 19.0058 -91.0144
rradius 111.015
rwrist -23.002
rhand -33.287 -21.9384
rfingers 7.12502
rthumb -6.49133 -51.8189
lclavicle 3.13831e-014 -3.37934e-015
lhumerus -96.298 -16.0276 98.3358
lradius 100.281
lwrist 33.9023
lhand -30.0442 -21.9907
lfingers 7.12502
lthumb -3.36017 7.96254
rfemur 21.6878 2.50049 22.9369
rtibia 20.1075
rfoot 1.7908 -0.207288
rtoes 20.4406
lfemur -30.7622 7.51032 -14.9787
ltibia 50.2456
lfoot -4.99593 10.939
ltoes -1.41757
